<svg xmlns="http://www.w3.org/2000/svg" width="319.5" height="276" viewBox="0 0 319.5 276"><style type="text/css">.st0{fill:#E65252;stroke:#E65252;stroke-width:3;stroke-miterlimit:10;} .st1{fill:#FFFFFF;} .st2{fill:none;stroke:#FFFFFF;stroke-width:2.6977;stroke-linecap:round;stroke-miterlimit:10;}</style><ellipse class="st0" cx="160" cy="137.1" rx="147.9" ry="127"/><path class="st1" d="M59.1 185.2c0 1.2-.4 2.2-1.3 3s-2 1.2-3.4 1.2-2.5-.4-3.4-1.2c-.9-.8-1.3-1.8-1.3-3s.4-2.2 1.3-3c.9-.8 2-1.2 3.4-1.2s2.5.4 3.4 1.2c.8.8 1.3 1.8 1.3 3zm6.2-13.9h12.6c4.3 0 7.6 1.4 9.9 4.1 2.1 2.4 3.1 5.6 3.1 9.4 0 2.9-.6 5.6-1.9 8-2.2 4.2-5.9 6.3-11.3 6.3h-12.4v-27.8zm11.7 24.5c1.4 0 2.6-.1 3.5-.4 1.6-.5 2.9-1.4 4-2.8.8-1.1 1.4-2.6 1.8-4.3.2-1 .3-2 .3-2.9 0-3.4-.8-6.1-2.3-8-1.5-1.9-3.9-2.9-7.3-2.9h-7.4v21.3h7.4zm29.1-10.6c0 1.2-.4 2.2-1.3 3s-2 1.2-3.4 1.2-2.5-.4-3.4-1.2c-.9-.8-1.3-1.8-1.3-3s.4-2.2 1.3-3c.9-.8 2-1.2 3.4-1.2s2.5.4 3.4 1.2c.8.8 1.3 1.8 1.3 3zm7-13.9h4.3v27.7h-4.3v-27.7zm20.5 13.9c0 1.2-.4 2.2-1.3 3s-2 1.2-3.4 1.2-2.5-.4-3.4-1.2c-.9-.8-1.3-1.8-1.3-3s.4-2.2 1.3-3c.9-.8 2-1.2 3.4-1.2s2.5.4 3.4 1.2c.8.8 1.3 1.8 1.3 3zm6-13.9h5l15.7 22.4v-22.4h4.1v27.7h-4.8l-15.9-22.4v22.4h-4.1v-27.7zm41 13.9c0 1.2-.4 2.2-1.3 3s-2 1.2-3.4 1.2-2.5-.4-3.4-1.2c-.9-.8-1.3-1.8-1.3-3s.4-2.2 1.3-3c.9-.8 2-1.2 3.4-1.2s2.5.4 3.4 1.2c.8.8 1.3 1.8 1.3 3zm6.4-13.9h22.8v3.4h-18.7v8.4h17.2v3.2h-17.2v9.4h19v3.3h-23.1v-27.7zm38.1 13.9c0 1.2-.4 2.2-1.3 3s-2 1.2-3.4 1.2-2.5-.4-3.4-1.2c-.9-.8-1.3-1.8-1.3-3s.4-2.2 1.3-3c.9-.8 2-1.2 3.4-1.2s2.5.4 3.4 1.2c.9.8 1.3 1.8 1.3 3zm6.6-13.9h14.3c2.4 0 4.3.3 5.8.9 2.9 1.2 4.3 3.4 4.3 6.6 0 1.7-.4 3-1.2 4.1-.8 1.1-1.9 1.9-3.3 2.5 1.2.4 2.1 1 2.8 1.7.6.7 1 1.9 1 3.5l.1 3.7c0 1.1.1 1.8.3 2.4.3.9.7 1.4 1.4 1.7v.6h-5.2c-.1-.2-.3-.5-.3-.9-.1-.4-.2-1.1-.2-2.2l-.3-4.6c-.1-1.8-.8-3-2.2-3.6-.8-.3-2-.5-3.7-.5h-9.4v11.8h-4.3v-27.7zm13.8 12.7c1.9 0 3.5-.4 4.6-1.1s1.7-2 1.7-3.8c0-2-.8-3.3-2.4-4-.8-.4-2-.6-3.4-.6h-10.1v9.5h9.6zm26.6 1.2c0 1.2-.4 2.2-1.3 3s-2 1.2-3.4 1.2-2.5-.4-3.4-1.2c-.9-.8-1.3-1.8-1.3-3s.4-2.2 1.3-3c.9-.8 2-1.2 3.4-1.2s2.5.4 3.4 1.2c.8.8 1.3 1.8 1.3 3z"/><path class="st2" d="M46.5 163.5h227.1m-227.1 44.4h227.1"/><path class="st1" d="M90.3 112.5c-7.9 1.3-13.3 2.3-13.6 2.3-1.2.2-4.4.8-5.1-1.5-.8-3.1 1.6-3.3 3.5-3.8 0 0 9.4-1.8 19.9-3.5 3.1-4.8 5.9-9.4 8.6-13.5 10.4-16.3 25.3-49.3 25.3-49.2 1-2-.3-5.9 6.9-5.8 7.4.3 6.9 1.5 7.1 10.9.3 18.3 3.6 37.2 8.1 53.8 4.3 0 7.7 0 9.4.2 6.2.5-.5 5.6-3.3 5.8l-4.3.3c4.9 17.1 10.9 31.2 15.3 39 1.6 1.6-5.3 4.8-8.1 1.5-5.3-5.9-10.5-22.5-15-40.5-6.6.2-15.3.5-24.3.8-6.6.2-14 1-20.9 1.8-6.7 9.9-23 30.9-38.5 30.1-18.1-1-20.4-20.4-20.4-20.4s-.2-3 2.1-3c2.6.2 3 2 3 2s1.5 15.5 15.1 15.3c10.6-.1 20.6-10.6 29.2-22.6zm43.2-62.2l-29.9 54.4c4.9-.7 9.5-1.2 13-1.3 4.4-.2 16.4-.7 27-1-6-25.8-10.1-52.1-10.1-52.1zm82.1 60.8c1.6-2.6 3.8 1.2.3 7.6-1.2 2.3-9.9 20.4-25.8 19.6-19.4-1-19.9-22.5-19.7-40.6.2-16 9.7-48.5 22.4-47.7 8.1.5 11 10.4 8.6 26.5-3.1 21.9-16 43.4-21.2 49.5 3 4.6 7.1 7.4 11.8 7.4 11.9-.1 19.8-15.4 23.6-22.3zm-23-55c-6.2-.5-15.1 19.7-17.3 41.9-.5 6.7.5 18.1 2.6 24 8.6-12.3 11.2-18.7 17.1-42.1 1.2-4.3 3.8-23.5-2.4-23.8zm32.2-13.2c1.6 1 1.3 2.3 1.3 3.3-.2 1.2-4.4 27.5-4.6 28s-1.6 2.5-2.6 2.1c-2.1-.8-2.6-2.3-2.6-3.8.2-1.5 4.1-26.5 4.8-28.9.6-2.3 1.9-1.7 3.7-.7zm8.6 77.5c.7 2.5 1.8 4.6 3 6.4.3-.2.7-.2 1-.2 5.9-.5 7.6-4.4 7.6-9.5 0-9.4-3.3-11.8-5.1-15.1-.3 5.3-3.3 11.3-5.6 15.1-.7 1.2-4.1-.5-3-2.8 1-2.1 4.3-6.9 5.9-17.1.5-3.6 1.3-6.6 4.4-6.6 5.6.2 4.8 6.6 4.9 9.2.2 3.6 4.8 14.6 4.6 18.3-.8 8.2-7.1 13-11.7 12.2 2.5 2.3 5.6 3.5 9 3.5 12.2 0 19.9-15.5 23.8-22.4 1.5-2.6 3.8 1.2.5 7.7-1.3 2.3-10.2 20.4-26.3 19.4-11.2-.7-16.1-7.9-18.4-17.4 0 0 0-2.3 2.3-3 2.2-.7 2.7 1.3 3.1 2.3z"/></svg>